<?xml version="1.0" encoding="utf-8"?>
<!-- Svg Vector Icons : http://www.onlinewebfonts.com/icon -->
<!DOCTYPE svg PUBLIC "-//W3C//DTD SVG 1.1//EN" "http://www.w3.org/Graphics/SVG/1.1/DTD/svg11.dtd">
<svg version="1.1" xmlns="http://www.w3.org/2000/svg" xmlns:xlink="http://www.w3.org/1999/xlink" x="0px" y="0px" viewBox="0 0 1000 1000" enable-background="new 0 0 1000 1000" xml:space="preserve">
<metadata> Svg Vector Icons : http://www.onlinewebfonts.com/icon </metadata>
<g><g transform="matrix(1 0 0 -1 0 1536)"><path d="M915.8,1310L990,701.3c-41.8,0-82.8,9.1-123,27.3c-63.8,29-126.5,43.5-188.1,43.5c-72.1,0-131.8-23.6-179-70.8c-47.2,47.2-106.9,70.8-179,70.8c-61.6,0-124.3-14.5-188.1-43.5c-40.8-18.2-81-27.3-120.6-27.3H10L84.2,1310c71.5,40.5,148.3,60.8,230.6,60.8c74.3,0,136.1-16.9,185.2-50.7c49.1,33.8,110.9,50.7,185.2,50.7C767.5,1370.7,844.4,1350.5,915.8,1310z M679,837.7c41.2,0,78.2-4.5,111-13.6s74.3-24,124.4-44.7l-59.3,488.6c-54.6,24.9-113.2,37.3-176.1,37.3c-71.5,0-131.1-22.5-179-67.5c-47.9,45-107.5,67.5-179,67.5c-62.8,0-121.5-12.4-176.1-37.3L85.6,779.3c33.5,13.7,59.9,24.1,79.2,31.1s43,13.3,71.1,18.9s56.5,8.4,85.2,8.4c64.4,0,124.1-17.2,179-51.7C554.9,820.4,614.5,837.7,679,837.7z M698.1,853.9l-26.3,434c-67.3-1.3-124.6-26-171.8-74.2c-48.5,49.4-108.1,74.2-179,74.2c-56.1,0-109.7-10.5-160.8-31.6l-54.6-450.3c39.6,16.3,76,28.4,109.3,36.4s68.7,12,106,12c66.7,0,126.3-16.3,179-48.8c54.9,34.1,114.5,50.4,179,48.8L698.1,853.9z"/></g></g>
</svg>