<?xml version="1.0" encoding="iso-8859-1"?>
<!-- Generator: Adobe Illustrator 16.0.0, SVG Export Plug-In . SVG Version: 6.00 Build 0)  -->
<!DOCTYPE svg PUBLIC "-//W3C//DTD SVG 1.1//EN" "http://www.w3.org/Graphics/SVG/1.1/DTD/svg11.dtd">
<svg version="1.1" id="Capa_1" xmlns="http://www.w3.org/2000/svg" xmlns:xlink="http://www.w3.org/1999/xlink" x="0px" y="0px"
	 width="512px" height="512px" viewBox="0 0 512 512" style="enable-background:new 0 0 512 512;" xml:space="preserve">
<g>
	<path d="M256,0C114.609,0,0,114.609,0,256c0,141.391,114.609,256,256,256c141.391,0,256-114.609,256-256
		C512,114.609,397.391,0,256,0z M256,472c-119.297,0-216-96.703-216-216S136.703,40,256,40s216,96.703,216,216S375.297,472,256,472z
		"/>
	<g>
		<g>
			<path d="M128.591,281.609c-2.875,13.5,5.344,32,12.781,38.391v-64C133.935,262.391,130.778,271.5,128.591,281.609z
				 M347.341,250.188c-4.469,0-8.672,0.875-12.608,2.266c-1.97-33.672-31-60.453-66.812-60.453
				c-22.891,0-50.609,8.938-62.703,25.594V320h142.125c20.25,0,36.656-15.625,36.656-34.891
				C383.997,265.812,367.591,250.188,347.341,250.188z M179.685,320h12.766v-89.594h-12.766V320z M154.138,320h12.766v-76.812
				h-12.766V320z"/>
		</g>
	</g>
</g>
<g>
</g>
<g>
</g>
<g>
</g>
<g>
</g>
<g>
</g>
<g>
</g>
<g>
</g>
<g>
</g>
<g>
</g>
<g>
</g>
<g>
</g>
<g>
</g>
<g>
</g>
<g>
</g>
<g>
</g>
</svg>
